<svg xmlns="http://www.w3.org/2000/svg" width="200" height="200" viewBox="0 0 200 200">
    <!-- Background -->
    <rect width="100%" height="100%" fill="#f0f0f0"/>
    
    <!-- Image icon -->
    <path d="M160 40v120H40V40h120m0-10H40c-5.5 0-10 4.5-10 10v120c0 5.5 4.5 10 10 10h120c5.5 0 10-4.5 10-10V40c0-5.5-4.5-10-10-10z" fill="#cccccc"/>
    
    <!-- Mountain shape -->
    <path d="M65 110l20-20 10 10 40-40 20 20v40H65z" fill="#dddddd"/>
    
    <!-- Sun/circle -->
    <circle cx="75" cy="75" r="10" fill="#dddddd"/>
    
    <!-- Error indicator cross -->
    <path d="M140 50l10 10-40 40-10-10z M100 50l40 40-10 10-40-40z" fill="#bbbbbb"/>
</svg>