<svg width="20" height="21" viewBox="0 0 20 21" fill="none" xmlns="http://www.w3.org/2000/svg">
<g clip-path="url(#clip0_420_12276)">
<path d="M12.5374 0.499999C12.5149 0.499166 7.48492 0.499166 7.46242 0.499999C5.18242 0.519999 3.33325 2.38167 3.33325 4.66583V16.3325C3.33325 18.63 5.20242 20.4992 7.49992 20.4992H12.4999C14.7974 20.4992 16.6666 18.63 16.6666 16.3325V4.66667C16.6666 2.38167 14.8174 0.520833 12.5374 0.499999ZM14.9999 16.3325C14.9999 17.7108 13.8783 18.8325 12.4999 18.8325H7.49992C6.12159 18.8325 4.99992 17.7108 4.99992 16.3325V4.66667C4.99992 3.45583 5.86492 2.44417 7.00909 2.215L7.58742 3.3725C7.72825 3.655 8.01742 3.83333 8.33325 3.83333H11.6666C11.9824 3.83333 12.2708 3.655 12.4124 3.3725L12.9908 2.215C14.1349 2.44333 14.9999 3.45583 14.9999 4.66667V16.3325ZM10.8333 17.1658H9.16659C8.70659 17.1658 8.33325 16.7925 8.33325 16.3325C8.33325 15.8725 8.70659 15.4992 9.16659 15.4992H10.8333C11.2933 15.4992 11.6666 15.8725 11.6666 16.3325C11.6666 16.7925 11.2933 17.1658 10.8333 17.1658Z" fill="#1A9D56"/>
</g>
<defs>
<clipPath id="clip0_420_12276">
<rect width="20" height="20" fill="white" transform="translate(0 0.5)"/>
</clipPath>
</defs>
</svg>
