<svg width="21" height="20" viewBox="0 0 21 20" fill="none" xmlns="http://www.w3.org/2000/svg">
<g clip-path="url(#clip0_386_4362)">
<path d="M13.0374 1.46485e-05C13.0149 -0.000818685 7.98492 -0.000818685 7.96242 1.46485e-05C5.68242 0.0200146 3.83325 1.88168 3.83325 4.16585V15.8325C3.83325 18.13 5.70242 19.9992 7.99992 19.9992H12.9999C15.2974 19.9992 17.1666 18.13 17.1666 15.8325V4.16668C17.1666 1.88168 15.3174 0.020848 13.0374 1.46485e-05ZM15.4999 15.8325C15.4999 17.2108 14.3783 18.3325 12.9999 18.3325H7.99992C6.62159 18.3325 5.49992 17.2108 5.49992 15.8325V4.16668C5.49992 2.95585 6.36492 1.94418 7.50909 1.71501L8.08742 2.87251C8.22825 3.15501 8.51742 3.33335 8.83325 3.33335H12.1666C12.4824 3.33335 12.7708 3.15501 12.9124 2.87251L13.4908 1.71501C14.6349 1.94335 15.4999 2.95585 15.4999 4.16668V15.8325ZM11.3333 16.6658H9.66659C9.20659 16.6658 8.83325 16.2925 8.83325 15.8325C8.83325 15.3725 9.20659 14.9992 9.66659 14.9992H11.3333C11.7933 14.9992 12.1666 15.3725 12.1666 15.8325C12.1666 16.2925 11.7933 16.6658 11.3333 16.6658Z" fill="#231F20"/>
</g>
<defs>
<clipPath id="clip0_386_4362">
<rect width="20" height="20" fill="white" transform="translate(0.5)"/>
</clipPath>
</defs>
</svg>
