<svg width="219" height="193" viewBox="0 0 219 193" fill="none" xmlns="http://www.w3.org/2000/svg">
<path d="M1.08472 24.1138C40.0871 33.3208 76.0082 49.4126 109.113 72.4147C142.146 48.5825 178.831 32.9236 218.572 23.4009C217.513 24.674 216.229 24.9642 215.114 25.504C184.877 40.1598 157.043 58.3496 132.072 80.9444C122.014 90.0495 114.904 101.186 107.891 112.502C92.8203 136.818 75.8249 159.606 54.9028 179.278C49.8351 184.044 44.7116 188.744 38.7629 192.691C39.3944 191.83 40.0413 190.985 40.6524 190.114C59.2726 163.344 76.0744 135.524 89.0005 105.5C91.3179 100.122 93.2787 94.6224 93.9204 88.5167C80.3933 75.2358 65.6032 63.3859 49.8453 52.7226C34.2148 42.1458 17.9477 32.6486 1.0949 24.1138H1.08472Z" fill="#0BAB59"/>
<path d="M177.696 192.141C169.292 185.786 161.647 178.575 154.145 171.206C144.932 162.157 136.452 152.466 128.558 142.256C128.252 141.864 127.906 141.503 127.356 140.866C117.715 149.217 108.385 157.808 98.0916 165.263C87.768 172.739 76.9657 179.364 65.6694 185.276C65.211 184.568 65.7662 184.268 66.0819 183.983C88.2875 163.98 107.035 141.115 123.068 115.919C134.135 98.5282 148.574 84.0455 163.924 70.4541C177.502 58.4361 192.348 48.1953 208.116 39.2786C210.821 37.7509 213.662 36.4523 216.683 35.332C185.361 61.2064 159.157 91.4091 138.102 126.266C141.474 133.141 145.391 139.679 149.17 146.294C157.675 161.179 166.878 175.621 176.804 189.595C177.288 190.277 177.655 191.051 178.078 191.779L177.69 192.146L177.696 192.141Z" fill="#0BAB59" fill-opacity="0.15"/>
<path d="M84.4473 24.5962C84.4728 10.7756 95.3718 -0.0507446 109.215 0.000178905C122.63 0.0511022 133.488 11.2339 133.427 24.9425C133.366 38.3507 122.283 49.4724 108.996 49.4673C95.3413 49.4622 84.4269 38.4016 84.4473 24.5962Z" fill="#0BAB59"/>
<path d="M75.7791 118.546C54.3833 87.2074 30.0131 59.4032 1.45654 35.3162C32.6615 50.7307 58.7328 72.6382 82.0079 98.3342C79.9707 104.898 77.633 111.248 75.774 118.541L75.7791 118.546Z" fill="#0BAB59" fill-opacity="0.15"/>
<path d="M178.083 191.772C178.205 191.98 178.327 192.189 178.449 192.398L178.291 192.556C178.093 192.413 177.894 192.276 177.696 192.133C177.823 192.011 177.955 191.889 178.083 191.767V191.772Z" fill="#0BAB59" fill-opacity="0.15"/>
<path d="M178.455 192.399C178.551 192.501 178.653 192.608 178.75 192.71C178.465 193.036 178.404 192.725 178.297 192.557L178.455 192.399Z" fill="#0BAB59" fill-opacity="0.15"/>
</svg>
