<svg width="20" height="20" viewBox="0 0 20 20" fill="none" xmlns="http://www.w3.org/2000/svg">
<path d="M20 9.37249C19.8794 7.42251 19.1909 5.55042 18.0193 3.98702C16.8477 2.42361 15.2441 1.23724 13.4064 0.574159C11.5687 -0.0889222 9.57705 -0.199725 7.6771 0.25541C5.77715 0.710545 4.05192 1.71172 2.71409 3.13551C1.37626 4.5593 0.484331 6.34346 0.148249 8.26804C-0.187833 10.1926 0.0466277 12.1735 0.822727 13.9664C1.59883 15.7594 2.88264 17.286 4.51589 18.3581C6.14914 19.4302 8.06043 20.001 10.0141 20H15.8333C16.938 19.9989 17.9972 19.5596 18.7784 18.7784C19.5595 17.9972 19.9989 16.9381 20 15.8333V9.37249ZM18.3333 15.8333C18.3333 16.4964 18.0699 17.1323 17.6011 17.6011C17.1322 18.0699 16.4963 18.3333 15.8333 18.3333H10.0141C8.83824 18.3328 7.67567 18.0844 6.60221 17.6044C5.52876 17.1244 4.56853 16.4235 3.78413 15.5475C2.99594 14.6719 2.40407 13.6379 2.04821 12.5148C1.69235 11.3917 1.58071 10.2056 1.7208 9.03583C1.94199 7.19078 2.77095 5.47182 4.077 4.14993C5.38304 2.82805 7.09188 1.97842 8.93413 1.735C9.29349 1.68996 9.65529 1.66713 10.0175 1.66666C11.9595 1.66137 13.8415 2.33992 15.3333 3.58333C16.2046 4.30745 16.9197 5.20096 17.4354 6.20969C17.9511 7.21842 18.2566 8.32136 18.3333 9.45166V15.8333Z" fill="#1A9D56"/>
<path d="M6.66659 7.49999H9.99992C10.2209 7.49999 10.4329 7.4122 10.5892 7.25592C10.7455 7.09964 10.8333 6.88768 10.8333 6.66666C10.8333 6.44565 10.7455 6.23369 10.5892 6.07741C10.4329 5.92113 10.2209 5.83333 9.99992 5.83333H6.66659C6.44557 5.83333 6.23361 5.92113 6.07733 6.07741C5.92105 6.23369 5.83325 6.44565 5.83325 6.66666C5.83325 6.88768 5.92105 7.09964 6.07733 7.25592C6.23361 7.4122 6.44557 7.49999 6.66659 7.49999ZM13.3333 9.16666H6.66659C6.44557 9.16666 6.23361 9.25446 6.07733 9.41074C5.92105 9.56702 5.83325 9.77898 5.83325 9.99999C5.83325 10.221 5.92105 10.433 6.07733 10.5893C6.23361 10.7455 6.44557 10.8333 6.66659 10.8333H13.3333C13.5543 10.8333 13.7662 10.7455 13.9225 10.5893C14.0788 10.433 14.1666 10.221 14.1666 9.99999C14.1666 9.77898 14.0788 9.56702 13.9225 9.41074C13.7662 9.25446 13.5543 9.16666 13.3333 9.16666ZM13.3333 12.5H6.66659C6.44557 12.5 6.23361 12.5878 6.07733 12.7441C5.92105 12.9004 5.83325 13.1123 5.83325 13.3333C5.83325 13.5543 5.92105 13.7663 6.07733 13.9226C6.23361 14.0789 6.44557 14.1667 6.66659 14.1667H13.3333C13.5543 14.1667 13.7662 14.0789 13.9225 13.9226C14.0788 13.7663 14.1666 13.5543 14.1666 13.3333C14.1666 13.1123 14.0788 12.9004 13.9225 12.7441C13.7662 12.5878 13.5543 12.5 13.3333 12.5Z" fill="#1A9D56"/>
</svg>
