<svg width="49" height="48" viewBox="0 0 49 48" fill="none" xmlns="http://www.w3.org/2000/svg">
<path d="M10.938 22.1085C12.4478 22.1086 13.9071 21.5648 15.0487 20.5766C16.1902 19.5885 16.9376 18.2222 17.154 16.728L19.1355 3.04199H12.6105C11.3102 3.04185 10.045 3.46426 9.00557 4.24559C7.96615 5.02692 7.20876 6.12485 6.8475 7.37399L4.905 14.082C3.7425 18.099 6.756 22.1085 10.938 22.1085ZM26.8095 29.841L27.585 31.413C27.9225 32.097 28.5765 32.5725 29.331 32.682L31.065 32.934C32.967 33.21 33.7275 35.5485 32.3505 36.891L31.095 38.115C30.8257 38.3776 30.6243 38.7017 30.508 39.0594C30.3918 39.4171 30.3641 39.7977 30.4275 40.1685L30.7245 41.8965C31.05 43.791 29.061 45.237 27.3585 44.3415L25.8075 43.5255C25.4747 43.3504 25.1043 43.2589 24.7283 43.2589C24.3522 43.2589 23.9818 43.3504 23.649 43.5255L22.098 44.3415C20.397 45.2355 18.408 43.791 18.732 41.8965L19.029 40.1685C19.0928 39.7977 19.0653 39.417 18.949 39.0593C18.8327 38.7015 18.6311 38.3774 18.3615 38.115L17.106 36.891C15.729 35.5485 16.4895 33.2115 18.3915 32.934L20.1255 32.682C20.8815 32.5725 21.534 32.097 21.8715 31.413L22.647 29.841C23.4975 28.1175 25.956 28.1175 26.8065 29.841H26.8095Z" fill="#1A9D56"/>
<path d="M10.9365 23.6085C9.72926 23.6134 8.53771 23.3351 7.45762 22.7958C6.37752 22.2565 5.439 21.4714 4.71748 20.5035C3.98824 19.5408 3.49491 18.4205 3.27713 17.2326C3.05934 16.0447 3.12317 14.8223 3.46348 13.6635L5.40598 6.95399C5.86381 5.39629 6.81237 4.02805 8.11049 3.05291C9.40861 2.07776 10.9869 1.54783 12.6105 1.54199H20.8695L18.639 16.944C18.09 20.7435 14.778 23.6085 10.9365 23.6085ZM12.6105 4.54199C11.6365 4.54577 10.6898 4.86389 9.91113 5.44902C9.1325 6.03415 8.56357 6.85501 8.28898 7.78949L6.34648 14.499C5.92348 15.957 6.20398 17.487 7.11598 18.7005C8.02798 19.914 9.41998 20.6085 10.938 20.6085C12.0859 20.6036 13.1941 20.188 14.0621 19.4368C14.9301 18.6857 15.5007 17.6488 15.6705 16.5135L17.403 4.54349L12.6105 4.54199Z" fill="#1A9D56"/>
<path d="M24.6525 23.6085C23.4097 23.6089 22.1814 23.3417 21.0511 22.8251C19.9208 22.3085 18.915 21.5545 18.102 20.6145C17.2877 19.6755 16.6854 18.572 16.3359 17.3793C15.9865 16.1865 15.8982 14.9325 16.077 13.7025L17.838 1.54199H31.4685L33.2295 13.701C33.4079 14.9311 33.3195 16.1853 32.9703 17.3782C32.6211 18.5712 32.0192 19.675 31.2056 20.6147C30.3919 21.5545 29.3856 22.3081 28.2548 22.8244C27.1241 23.3407 25.8955 23.6076 24.6525 23.607V23.6085ZM20.433 4.54199L19.044 14.133C18.9284 14.9371 18.9869 15.7566 19.2156 16.5361C19.4443 17.3156 19.8378 18.0369 20.3694 18.651C20.9011 19.2652 21.5586 19.758 22.2973 20.096C23.036 20.4339 23.8387 20.6092 24.651 20.61C25.4637 20.6102 26.2669 20.4356 27.0062 20.0979C27.7454 19.7603 28.4034 19.2675 28.9354 18.6532C29.4674 18.0388 29.861 17.3171 30.0895 16.5372C30.3179 15.7573 30.3759 14.9373 30.2595 14.133L28.8705 4.54199H20.433Z" fill="#1A9D56"/>
<path d="M38.367 23.6085C34.527 23.6085 31.2165 20.7435 30.666 16.944L28.437 1.54199H36.6945C38.3183 1.54775 39.8968 2.07762 41.1952 3.05276C42.4936 4.02789 43.4424 5.39617 43.9005 6.95399L45.843 13.6635C46.183 14.8221 46.2466 16.0442 46.0288 17.2318C45.811 18.4194 45.3179 19.5394 44.589 20.502C43.8675 21.4704 42.9288 22.2559 41.8484 22.7955C40.768 23.335 39.5761 23.6135 38.3685 23.6085H38.367ZM31.9035 4.54199L33.6345 16.512C33.8049 17.647 34.3756 18.6836 35.2435 19.4346C36.1114 20.1856 37.2193 20.6015 38.367 20.607C39.885 20.607 41.277 19.911 42.189 18.699C43.101 17.4855 43.3815 15.954 42.96 14.4975L41.0175 7.78799C40.7429 6.85327 40.1737 6.03222 39.3948 5.44707C38.6158 4.86192 37.6687 4.54395 36.6945 4.54049H31.9035V4.54199Z" fill="#1A9D56"/>
<path d="M35.7645 43.8075C35.6088 43.4867 35.5742 43.1205 35.667 42.7763C35.7599 42.432 35.9741 42.1329 36.27 41.934C37.6519 41.0127 38.752 39.7271 39.4488 38.2195C40.1455 36.7119 40.4117 35.041 40.218 33.3915L38.835 21.6195L41.814 21.27L43.197 33.042C43.4547 35.2382 43.1008 37.4629 42.1744 39.4708C41.248 41.4787 39.7851 43.1917 37.947 44.421C37.7672 44.5386 37.5644 44.6164 37.3521 44.6492C37.1397 44.682 36.9229 44.6689 36.716 44.611C36.5092 44.553 36.3171 44.4514 36.1527 44.3131C35.9883 44.1748 35.8555 44.0029 35.763 43.809L35.7645 43.8075ZM13.692 43.8075C13.5995 44.0014 13.4667 44.1733 13.3023 44.3116C13.1379 44.4499 12.9458 44.5515 12.739 44.6095C12.5321 44.6674 12.3152 44.6805 12.1029 44.6477C11.8906 44.6149 11.6878 44.5371 11.508 44.4195C9.67015 43.1897 8.20756 41.4763 7.28146 39.4682C6.35536 37.4601 6.00171 35.2353 6.25949 33.039L7.64249 21.2685L10.6215 21.618L9.23849 33.3885C9.04499 35.038 9.31115 36.7089 10.0076 38.2167C10.704 39.7245 11.8036 41.0104 13.185 41.9325C13.7985 42.342 14.01 43.1415 13.6905 43.806L13.692 43.8075ZM28.4415 46.11C27.8355 46.11 27.225 45.9645 26.661 45.669L25.1085 44.8515C24.9913 44.7895 24.8608 44.7571 24.7282 44.7571C24.5957 44.7571 24.4652 44.7895 24.348 44.8515L22.797 45.6675C22.166 46.0009 21.4541 46.1504 20.7423 46.099C20.0305 46.0475 19.3475 45.7972 18.771 45.3765C18.1928 44.9593 17.7437 44.3877 17.4752 43.7271C17.2068 43.0666 17.1298 42.3438 17.253 41.6415L17.5485 39.915C17.571 39.784 17.5613 39.6494 17.5203 39.5229C17.4793 39.3965 17.4081 39.2819 17.313 39.189L16.0575 37.9665C15.5453 37.4706 15.183 36.8407 15.0119 36.1486C14.8408 35.4566 14.8679 34.7304 15.09 34.053C15.3079 33.3734 15.7129 32.7691 16.2587 32.3092C16.8044 31.8494 17.4688 31.5528 18.1755 31.4535L19.9095 31.2015C20.0409 31.1818 20.1657 31.1306 20.273 31.0522C20.3804 30.9739 20.4672 30.8707 20.526 30.7515L21.3015 29.181C21.9495 27.867 23.262 27.051 24.726 27.051C26.19 27.051 27.5055 27.867 28.152 29.181L28.9275 30.753C29.0475 30.993 29.277 31.161 29.5455 31.2015L31.278 31.4535C31.9844 31.5535 32.6485 31.8504 33.1941 32.3101C33.7398 32.7698 34.145 33.3738 34.3635 34.053C34.5865 34.7303 34.614 35.4567 34.4429 36.149C34.2717 36.8412 33.9089 37.4711 33.396 37.9665L32.1405 39.189C32.0451 39.2817 31.9739 39.3963 31.9328 39.5228C31.8918 39.6493 31.8822 39.784 31.905 39.915L32.2005 41.6415C32.3237 42.3438 32.2467 43.0666 31.9782 43.7271C31.7098 44.3877 31.2607 44.9593 30.6825 45.3765C30.012 45.8625 29.2275 46.11 28.4385 46.11H28.4415ZM24.7275 41.7585C25.338 41.7585 25.9485 41.9055 26.5065 42.198L28.0575 43.014C28.1921 43.0876 28.3452 43.1207 28.4983 43.1093C28.6513 43.0979 28.7978 43.0424 28.92 42.9495C29.046 42.8618 29.144 42.7395 29.202 42.5974C29.26 42.4552 29.2757 42.2993 29.247 42.1485L28.9515 40.422C28.8467 39.8118 28.8918 39.1852 29.0828 38.5963C29.2738 38.0073 29.605 37.4736 30.048 37.041L31.3035 35.8185C31.4152 35.7133 31.4943 35.5781 31.5312 35.4291C31.5682 35.2802 31.5615 35.1238 31.512 34.9785C31.4672 34.8315 31.3809 34.7006 31.2636 34.6014C31.1463 34.5021 31.0029 34.4388 30.8505 34.419L29.1165 34.167C28.5039 34.078 27.9221 33.8414 27.4212 33.4777C26.9203 33.1139 26.5153 32.6339 26.241 32.079L25.4655 30.5055C25.2615 30.0945 24.882 30.048 24.729 30.048C24.576 30.048 24.198 30.093 23.994 30.5055L23.2185 32.0775C22.9445 32.6325 22.5398 33.1127 22.0392 33.4767C21.5386 33.8407 20.957 34.0776 20.3445 34.167L18.609 34.419C18.4565 34.4385 18.3129 34.5017 18.1955 34.6009C18.0781 34.7002 17.992 34.8313 17.9475 34.9785C17.898 35.1238 17.8913 35.2802 17.9282 35.4291C17.9652 35.5781 18.0443 35.7133 18.156 35.8185L19.4115 37.041C20.3115 37.9185 20.721 39.183 20.508 40.422L20.2125 42.1485C20.1836 42.2993 20.1992 42.4553 20.2572 42.5975C20.3153 42.7397 20.4133 42.8619 20.5395 42.9495C20.6617 43.0429 20.8086 43.0987 20.9621 43.1099C21.1156 43.1211 21.269 43.0872 21.4035 43.0125L22.953 42.198C23.5011 41.9095 24.1111 41.7587 24.7305 41.7585H24.7275Z" fill="#1A9D56"/>
</svg>
